<?xml version="1.0" encoding="utf-8" ?><svg xmlns="http://www.w3.org/2000/svg" xmlns:xlink="http://www.w3.org/1999/xlink" width="1742" height="980" viewBox="0 0 1742 980"><defs><linearGradient id="gradient_0" gradientUnits="userSpaceOnUse" x1="1430.7769" y1="1063.5106" x2="1613.3973" y2="713.11621"><stop offset="0" stop-color="#0091FF"/><stop offset="1" stop-color="#00D2FC"/></linearGradient></defs><path fill="url(#gradient_0)" d="M964.486 849.205C1047.73 827.806 1125.17 789.981 1202.66 753.751C1316.17 700.686 1435.63 652.074 1560.34 634.26C1617.32 626.601 1674.91 624.39 1732.31 627.657C1735.53 627.659 1738.78 627.569 1742 627.68L1742 657.851L1742 777.449L1742 980L1277.73 980C1263.09 972.119 1244.22 974.658 1234.83 957.831C1219.75 930.771 1274.96 884.607 1291.57 867.393C1296.26 862.531 1304.62 854.738 1306.43 848.13C1306.47 847.976 1306.51 847.82 1306.54 847.665L1304.1 848.648C1300.26 848.504 1296.21 850.574 1292.66 851.935C1292.49 851.824 1292.33 851.686 1292.14 851.603C1286.66 849.172 1240.92 863.932 1232.21 866.162C1218.56 869.654 1204.38 871.678 1190.49 874.065C1128.14 884.783 1061.57 889.998 1000.77 868.726C990.257 865.047 979.239 860.775 969.685 855.008C966.949 853.356 965.278 852.35 964.486 849.205Z"/><path fill="#40CBFC" d="M964.486 849.205C1047.73 827.806 1125.17 789.981 1202.66 753.751C1316.17 700.686 1435.63 652.074 1560.34 634.26C1617.32 626.601 1674.91 624.39 1732.31 627.657C1735.53 627.659 1738.78 627.569 1742 627.68L1742 657.851L1742 777.449C1712.83 771.618 1684.41 767.151 1654.64 765.512C1561.93 760.407 1466.55 780.278 1380.34 813.403C1359.22 821.519 1329.65 831.65 1310.95 844.091C1309.35 845.157 1307.83 846.225 1306.54 847.665L1304.1 848.648C1300.26 848.504 1296.21 850.574 1292.66 851.935C1292.49 851.824 1292.33 851.686 1292.14 851.603C1286.66 849.172 1240.92 863.932 1232.21 866.162C1218.56 869.654 1204.38 871.678 1190.49 874.065C1128.14 884.783 1061.57 889.998 1000.77 868.726C990.257 865.047 979.239 860.775 969.685 855.008C966.949 853.356 965.278 852.35 964.486 849.205Z"/><path fill="#7CE9F9" d="M1732.31 627.657C1735.53 627.659 1738.78 627.569 1742 627.68L1742 657.851C1741.39 659.573 1740.77 661.291 1740.14 663.006L1739.35 662.322C1739.5 661.493 1739.62 660.659 1739.71 659.822C1740.44 652.46 1740.94 640.153 1735.91 634.183C1734.42 632.414 1733.58 630.684 1732.68 628.56L1732.31 627.657Z"/><defs><linearGradient id="gradient_1" gradientUnits="userSpaceOnUse" x1="325.76929" y1="1042.9757" x2="530.23871" y2="796.63855"><stop offset="0" stop-color="#0046E8"/><stop offset="1" stop-color="#0071EE"/></linearGradient></defs><path fill="url(#gradient_1)" d="M0 642.318C84.2688 639.368 164.201 653.088 244.869 676.64C258.136 680.513 271.452 684.38 284.518 688.892C290.935 691.108 297.477 694.412 303.948 696.192C412.821 734.295 516.44 785.675 624.147 826.662C632.137 829.702 640.33 831.998 648.334 834.917C648.142 835.677 647.823 836.024 648.248 836.726C651.473 842.063 656.964 845.915 660.709 850.901C677.254 859.67 696.058 894.511 701.481 912.015C702.87 916.5 704.2 921.374 704.405 926.072L704.044 937.808C695.474 960.579 685.803 968.728 665.146 980L245.519 980L0 980L0 651.379L0 650.804L0 642.318Z"/><path fill="#0030BA" d="M0 642.318C84.2688 639.368 164.201 653.088 244.869 676.64C258.136 680.513 271.452 684.38 284.518 688.892C290.935 691.108 297.477 694.412 303.948 696.192C304.367 698.267 304.906 698.999 303.697 700.816C302.608 702.452 300.89 703.525 299.842 705.174L299.186 705.437C294.743 712.967 281.06 724.041 274.552 730.966C253.938 752.898 237.905 778.403 225.633 805.793L223.259 809.282C208.533 837.858 205.516 887.334 215.308 917.908C219.293 930.352 224.883 943.647 231.19 955.081C235.807 963.45 241.19 971.493 245.519 980L0 980L0 651.379L0 650.804L0 642.318Z"/><path fill="#004ACF" d="M0 642.318C84.2688 639.368 164.201 653.088 244.869 676.64C258.136 680.513 271.452 684.38 284.518 688.892C290.935 691.108 297.477 694.412 303.948 696.192C304.367 698.267 304.906 698.999 303.697 700.816C302.608 702.452 300.89 703.525 299.842 705.174L299.186 705.437C294.743 712.967 281.06 724.041 274.552 730.966C253.938 752.898 237.905 778.403 225.633 805.793L223.259 809.282C216.621 803.755 203.537 803.24 195.241 801.215C128.222 784.858 71.6036 777.557 2.67313 776.113L2.63489 693.739C2.70561 681.889 5.04949 665.551 2.4548 654.381C1.98654 652.365 1.68101 652.401 0 651.379L0 650.804L0 642.318Z"/><path fill="#3376DB" d="M0 642.318C84.2688 639.368 164.201 653.088 244.869 676.64C258.136 680.513 271.452 684.38 284.518 688.892C290.935 691.108 297.477 694.412 303.948 696.192C304.367 698.267 304.906 698.999 303.697 700.816C302.608 702.452 300.89 703.525 299.842 705.174L299.186 705.437C282.315 699.828 265.583 693.644 248.614 688.355C159.04 660.434 93.8556 650.065 0 650.804L0 642.318Z"/><defs><linearGradient id="gradient_2" gradientUnits="userSpaceOnUse" x1="418.04144" y1="934.78424" x2="533.04834" y2="765.50751"><stop offset="0" stop-color="#06F"/><stop offset="1" stop-color="#08F"/></linearGradient></defs><path fill="url(#gradient_2)" d="M303.948 696.192C412.821 734.295 516.44 785.675 624.147 826.662C632.137 829.702 640.33 831.998 648.334 834.917C648.142 835.677 647.823 836.024 648.248 836.726C651.473 842.063 656.964 845.915 660.709 850.901C677.254 859.67 696.058 894.511 701.481 912.015C702.87 916.5 704.2 921.374 704.405 926.072L704.044 937.808C665.609 930.728 627.463 922.16 589.692 912.121C504.076 889.254 419.967 860.777 334.73 836.474C323.158 833.175 227.541 807.791 225.633 805.793C237.905 778.403 253.938 752.898 274.552 730.966C281.06 724.041 294.743 712.967 299.186 705.437L299.842 705.174C300.89 703.525 302.608 702.452 303.697 700.816C304.906 698.999 304.367 698.267 303.948 696.192Z"/><path fill="#3091F1" d="M303.948 696.192C412.821 734.295 516.44 785.675 624.147 826.662C632.137 829.702 640.33 831.998 648.334 834.917C648.142 835.677 647.823 836.024 648.248 836.726C651.473 842.063 656.964 845.915 660.709 850.901C615.586 836.696 571.85 816.686 528.338 798.253C452.589 766.163 377.199 733.265 299.842 705.174C300.89 703.525 302.608 702.452 303.697 700.816C304.906 698.999 304.367 698.267 303.948 696.192Z"/><path fill="#4CACF4" d="M648.334 834.917C653.749 836.37 659.028 838.013 664.322 839.858C662.531 839.988 660.095 839.812 658.529 840.647L659.268 840.787C673.163 843.527 687.494 850.664 700.947 855.258C726.827 864.077 752.97 872.104 779.339 879.329C896.752 911.969 1013.67 923.876 1134.14 901.293C1158 896.821 1180.98 890.306 1204.43 884.238C1206.88 884.689 1207.94 884.577 1209.67 886.477C1209.28 889.337 1208.17 890.701 1206.33 892.924C1221.9 887.881 1236.87 881.647 1252.13 875.778C1258.18 871.6 1266.54 868.635 1273.31 865.464C1280.41 859.166 1292.36 854.066 1301.32 850.873L1304.1 848.648L1306.54 847.665C1306.51 847.82 1306.47 847.976 1306.43 848.13C1304.62 854.738 1296.26 862.531 1291.57 867.393C1274.96 884.607 1219.75 930.771 1234.83 957.831C1244.22 974.658 1263.09 972.119 1277.73 980L1074.13 980L902.692 980L665.146 980C685.803 968.728 695.474 960.579 704.044 937.808L704.405 926.072C704.2 921.374 702.87 916.5 701.481 912.015C696.058 894.511 677.254 859.67 660.709 850.901C656.964 845.915 651.473 842.063 648.248 836.726C647.823 836.024 648.142 835.677 648.334 834.917Z"/><defs><linearGradient id="gradient_3" gradientUnits="userSpaceOnUse" x1="1152.004" y1="1015.4487" x2="1258.7186" y2="825.30383"><stop offset="0" stop-color="#006DE2"/><stop offset="1" stop-color="#0187E2"/></linearGradient></defs><path fill="url(#gradient_3)" d="M1306.54 847.665C1306.51 847.82 1306.47 847.976 1306.43 848.13C1304.62 854.738 1296.26 862.531 1291.57 867.393C1274.96 884.607 1219.75 930.771 1234.83 957.831C1244.22 974.658 1263.09 972.119 1277.73 980L1074.13 980C1086.16 972.231 1102.41 968.57 1115.67 962.954C1151.05 947.961 1189.86 930.654 1221.56 908.942C1244.09 898.63 1285.03 868.752 1301.32 850.873L1304.1 848.648L1306.54 847.665Z"/><path fill="#3091F1" d="M704.405 926.072C705.144 929.723 705.194 933.037 705.058 936.751C726.981 937.959 748.864 942.873 770.806 944.991C784.366 946.203 797.947 947.165 811.542 947.876C818.982 948.322 826.843 948.296 834.171 949.573C829.408 950.522 823.392 950.89 820.433 955.242C818.979 957.381 818.747 959.617 819.363 962.106C820.715 967.564 825.697 972.86 829.459 976.871C842.428 977.708 895.732 973.683 902.692 980L665.146 980C685.803 968.728 695.474 960.579 704.044 937.808L704.405 926.072Z"/><path fill="#71C7FB" d="M1045.84 921.786C1020.46 924.162 994.222 924.085 968.791 922.212C877.771 915.51 791.617 894.546 705.385 865.261C692.092 860.747 665.297 854.361 656.305 843.63C655.213 842.327 654.856 841.98 655.018 840.264L658.529 840.647L659.268 840.787C673.163 843.527 687.494 850.664 700.947 855.258C726.827 864.077 752.97 872.104 779.339 879.329C896.752 911.969 1013.67 923.876 1134.14 901.293C1158 896.821 1180.98 890.306 1204.43 884.238C1206.88 884.689 1207.94 884.577 1209.67 886.477C1209.28 889.337 1208.17 890.701 1206.33 892.924C1188.49 897.718 1169.96 902.769 1151.78 905.975C1144.16 907.319 1136.37 907.646 1128.73 908.929C1113.29 911.52 1098.06 914.382 1082.51 916.392C1076.32 917.193 1043.35 919.286 1041.48 920.586C1043 921.53 1044.07 921.664 1045.84 921.786Z"/><path fill="#40CBFC" d="M1206.33 892.924C1221.9 887.881 1236.87 881.647 1252.13 875.778C1238.19 886.852 1133.64 919.934 1114.56 921.655C1114.34 920.631 1114.56 920.035 1114.87 919.051C1112.6 917.67 1110.41 916.652 1107.93 915.702C1087.01 917.787 1066.98 921.108 1045.84 921.786C1044.07 921.664 1043 921.53 1041.48 920.586C1043.35 919.286 1076.32 917.193 1082.51 916.392C1098.06 914.382 1113.29 911.52 1128.73 908.929C1136.37 907.646 1144.16 907.319 1151.78 905.975C1169.96 902.769 1188.49 897.718 1206.33 892.924Z"/><path fill="#40CBFC" d="M1273.31 865.464C1280.41 859.166 1292.36 854.066 1301.32 850.873C1285.03 868.752 1244.09 898.63 1221.56 908.942C1222.43 906.319 1262.65 880.847 1268.94 876.342C1276.37 871.021 1283.34 865.564 1289.86 859.142C1284.23 860.994 1279.04 863.873 1273.31 865.464Z"/><defs><linearGradient id="gradient_4" gradientUnits="userSpaceOnUse" x1="907.18481" y1="972.13306" x2="1041.1553" y2="719.71118"><stop offset="0" stop-color="#187FF0"/><stop offset="1" stop-color="#2EA1F1" stop-opacity="0.98823529"/></linearGradient></defs><path fill="url(#gradient_4)" d="M664.322 839.858C684.464 844.185 704.156 850.239 724.416 854.249C804.687 870.136 885.13 870.392 964.486 849.205C965.278 852.35 966.949 853.356 969.685 855.008C979.239 860.775 990.257 865.047 1000.77 868.726C1061.57 889.998 1128.14 884.783 1190.49 874.065C1204.38 871.678 1218.56 869.654 1232.21 866.162C1240.92 863.932 1286.66 849.172 1292.14 851.603C1292.33 851.686 1292.49 851.824 1292.66 851.935C1263.54 864.009 1234.44 874.618 1204.43 884.238C1180.98 890.306 1158 896.821 1134.14 901.293C1013.67 923.876 896.752 911.969 779.339 879.329C752.97 872.104 726.827 864.077 700.947 855.258C687.494 850.664 673.163 843.527 659.268 840.787L658.529 840.647C660.095 839.812 662.531 839.988 664.322 839.858Z"/><path fill="#7CE9F9" d="M1292.66 851.935C1296.21 850.574 1300.26 848.504 1304.1 848.648L1301.32 850.873C1292.36 854.066 1280.41 859.166 1273.31 865.464C1266.54 868.635 1258.18 871.6 1252.13 875.778C1236.87 881.647 1221.9 887.881 1206.33 892.924C1208.17 890.701 1209.28 889.337 1209.67 886.477C1207.94 884.577 1206.88 884.689 1204.43 884.238C1234.44 874.618 1263.54 864.009 1292.66 851.935Z"/></svg>